<svg width="30" height="30" viewBox="0 0 30 30" fill="none" xmlns="http://www.w3.org/2000/svg">
<path fill-rule="evenodd" clip-rule="evenodd" d="M23.9197 14.9575C23.4381 15.8358 22.5031 16.4166 21.4406 16.4166H10.8864L9.32806 19.25H26.3281V22.0833H9.32806C7.17473 22.0833 5.81473 19.7741 6.8489 17.8758L8.7614 14.4191L3.6614 3.66665H0.828064V0.833313H5.46056L6.79223 3.66665H27.7589C28.8356 3.66665 29.5156 4.82831 28.9914 5.76331L23.9197 14.9575ZM25.3506 6.49998H8.13805L11.4956 13.5833H21.4406L25.3506 6.49998ZM9.32807 23.5C7.76973 23.5 6.5089 24.775 6.5089 26.3333C6.5089 27.8916 7.76973 29.1666 9.32807 29.1666C10.8864 29.1666 12.1614 27.8916 12.1614 26.3333C12.1614 24.775 10.8864 23.5 9.32807 23.5ZM20.6756 26.3333C20.6756 24.775 21.9364 23.5 23.4947 23.5C25.0531 23.5 26.3281 24.775 26.3281 26.3333C26.3281 27.8916 25.0531 29.1666 23.4947 29.1666C21.9364 29.1666 20.6756 27.8916 20.6756 26.3333Z" fill="white"/>
</svg>
