<svg width="24" height="24" viewBox="0 0 24 24" fill="none" xmlns="http://www.w3.org/2000/svg">
<path fill-rule="evenodd" clip-rule="evenodd" d="M12 0.666687C8.86919 0.666687 6.33335 3.20252 6.33335 6.33335C6.33335 9.46419 8.86919 12 12 12C15.1309 12 17.6667 9.46419 17.6667 6.33335C17.6667 3.20252 15.1309 0.666687 12 0.666687ZM14.975 6.33336C14.975 4.69003 13.6434 3.35836 12 3.35836C10.3567 3.35836 9.02502 4.69003 9.02502 6.33336C9.02502 7.9767 10.3567 9.30836 12 9.30836C13.6434 9.30836 14.975 7.9767 14.975 6.33336ZM20.6417 19.0834C20.6417 18.1767 16.2075 16.1084 12 16.1084C7.79252 16.1084 3.35835 18.1767 3.35835 19.0834V20.6417H20.6417V19.0834ZM0.666687 19.0834C0.666687 15.315 8.21752 13.4167 12 13.4167C15.7825 13.4167 23.3334 15.315 23.3334 19.0834V23.3334H0.666687V19.0834Z" fill="white"/>
</svg>
