<svg width="32" height="32" viewBox="0 0 32 32" fill="none" xmlns="http://www.w3.org/2000/svg">
<path fill-rule="evenodd" clip-rule="evenodd" d="M24.5 0.416687V6.08335H31.5834L29.2459 29.5009C29.1042 30.6625 28.1267 31.5834 26.9367 31.5834H24.5V28.75H26.4692L28.4525 8.91669H14.9092L14.5834 6.08335H21.6667V0.416687H24.5ZM11.0417 11.7358C5.72919 11.7358 0.416687 14.5833 0.416687 20.25H21.6667C21.6667 14.5833 16.3542 11.7358 11.0417 11.7358ZM0.416687 30.1384C0.416687 30.9317 1.05419 31.5692 1.84752 31.5692H20.25C21.0434 31.5692 21.6809 30.9317 21.6809 30.1384V28.75H0.416687V30.1384ZM11.0417 14.5692C9.04418 14.5692 5.70085 15.2208 4.12835 17.4167H17.955C16.3825 15.2208 13.0392 14.5692 11.0417 14.5692ZM21.6667 23.0834V25.9167H0.416687V23.0834H21.6667Z" fill="white"/>
</svg>
