<svg width="28" height="22" viewBox="0 0 28 22" fill="none" xmlns="http://www.w3.org/2000/svg">
<path fill-rule="evenodd" clip-rule="evenodd" d="M0.895844 2.5C0.895844 1.32417 1.84501 0.375 3.02084 0.375C4.19668 0.375 5.14584 1.32417 5.14584 2.5C5.14584 3.67583 4.19668 4.625 3.02084 4.625C1.84501 4.625 0.895844 3.67583 0.895844 2.5ZM0.895844 11C0.895844 9.82417 1.84501 8.875 3.02084 8.875C4.19668 8.875 5.14584 9.82417 5.14584 11C5.14584 12.1758 4.19668 13.125 3.02084 13.125C1.84501 13.125 0.895844 12.1758 0.895844 11ZM3.02084 17.375C1.84501 17.375 0.895844 18.3383 0.895844 19.5C0.895844 20.6617 1.85918 21.625 3.02084 21.625C4.18251 21.625 5.14584 20.6617 5.14584 19.5C5.14584 18.3383 4.19668 17.375 3.02084 17.375ZM27.1042 20.9167H7.27084V18.0833H27.1042V20.9167ZM7.27084 12.4167H27.1042V9.58333H7.27084V12.4167ZM7.27084 3.91667V1.08333H27.1042V3.91667H7.27084Z" fill="white"/>
</svg>
